<svg height="512pt" viewBox="0 0 512.00108 512" width="512pt" xmlns="http://www.w3.org/2000/svg"><path d="m179.433594 359.464844c1.40625-6.238282 2.023437-12.773438 1.726562-19.503906-1.6875-38.726563-33.625-69.851563-72.378906-70.570313-41.4375-.773437-75.269531 32.585937-75.269531 73.847656 0 7.511719 1.128906 14.753907 3.214843 21.582031 1.4375 4.699219-.496093 9.734376-4.539062 12.53125-19.957031 13.789063-32.796875 37.144532-31.875 63.445313 1.367188 38.953125 33.355469 70.421875 72.324219 71.1875 21.3125.421875 40.601562-8.195313 54.332031-22.269531 3.269531-3.347656 8.210938-4.316406 12.511719-2.46875 8.21875 3.539062 17.355469 5.351562 26.957031 4.96875 32.328125-1.277344 58.5-27.734375 59.441406-60.078125.789063-27.191407-15.9375-50.582031-39.730468-59.722657-5.171876-1.988281-7.929688-7.546874-6.714844-12.949218zm0 0" fill="#a3defe"/><path d="m139.5 487.257812c8.214844 3.53125 17.34375 5.339844 26.9375 4.957032 32.257812-1.273438 58.375-27.617188 59.429688-59.859375-37.722657 31.074219-82.886719 9.835937-95.878907-10.050781-2.605469-3.984376-8.195312-4.714844-11.820312-1.628907-48.6875 41.460938-102.621094 5.808594-100.859375-29.710937-10.894532 13.097656-17.3437502 30.019531-17.03125 48.460937.671875 39.496094 32.867187 71.78125 72.363281 72.5625 21.308594.417969 40.597656-8.199219 54.328125-22.269531 3.25-3.332031 8.257812-4.296875 12.53125-2.460938zm0 0" fill="#7acefa"/><path d="m99.3125 49.65625c0 27.425781-22.230469 49.660156-49.65625 49.660156s-49.65625-22.234375-49.65625-49.660156c0-27.421875 22.230469-49.65625 49.65625-49.65625s49.65625 22.234375 49.65625 49.65625zm0 0" fill="#a3defe"/><path d="m92.464844 74.820312c-53.203125 6.285157-73.3125-44.398437-60.558594-71.539062-18.65625 7.144531-31.90625 25.207031-31.90625 46.375 0 27.425781 22.230469 49.660156 49.65625 49.660156 18.242188 0 34.171875-9.84375 42.808594-24.496094zm0 0" fill="#7acefa"/><path d="m409.664062 271.738281c-66.476562-47.671875-124.703124-105.902343-172.375-172.378906-25.644531-35.761719-77.25-39.984375-108.367187-8.867187l-80 80.003906c-31.121094 31.117187-26.898437 82.71875 8.867187 108.367187 66.476563 47.671875 124.703126 105.898438 172.375 172.375 25.648438 35.765625 77.25 39.988281 108.367188 8.867188l80.003906-80c31.117188-31.121094 26.894532-82.722657-8.871094-108.367188zm0 0" fill="#6a96d7"/><path d="m265.101562 432.90625c-1.273437-1.277344-2.464843-2.683594-3.539062-4.179688-24.949219-34.789062-52.945312-67.777343-83.214844-98.046874-30.269531-30.269532-63.257812-58.265626-98.046875-83.214844-1.5-1.074219-2.90625-2.265625-4.179687-3.539063-12.679688-12.679687-12.628906-33.367187.117187-46.113281l80-80c12.746094-12.746094 33.433594-12.796875 46.113281-.117188 1.273438 1.273438 2.464844 2.679688 3.539063 4.179688 24.949219 34.789062 52.945313 67.777344 83.214844 98.046875s63.257812 58.265625 98.046875 83.210937c1.496094 1.078126 2.902344 2.269532 4.175781 3.539063 12.683594 12.683594 12.632813 33.371094-.113281 46.117187l-80 80c-6.222656 6.21875-14.476563 9.621094-23.234375 9.574219-8.703125-.046875-16.828125-3.40625-22.875-9.453125 0-.003906-.003907-.003906-.003907-.003906zm0 0" fill="#8eafe2"/><path d="m418.097656 41.269531c-19.371094.0625-37.351562 6.011719-52.257812 16.148438-3.703125 2.519531-8.375 3.199219-12.566406 1.621093-9.59375-3.601562-20.054688-5.4375-30.988282-5.105468-42.722656 1.296875-77.40625 36.226562-78.421875 78.960937-1.082031 45.617188 35.574219 82.9375 80.945313 82.9375 10.015625 0 19.605468-1.820312 28.460937-5.144531 4.191407-1.574219 8.867188-.902344 12.570313 1.617188 14.980468 10.195312 33.078125 16.15625 52.566406 16.15625 52.128906 0 94.304688-42.621094 93.585938-94.914063-.703126-51.050781-42.84375-92.441406-93.894532-92.277344zm0 0" fill="#a3defe"/><path d="m364.320312 135.691406c-42.742187-.804687-65.054687-51.621094-32.234374-81.449218-3.21875-.289063-6.484376-.410157-9.800782-.308594-42.722656 1.296875-77.40625 36.226562-78.421875 78.960937-1.082031 45.617188 35.574219 82.9375 80.945313 82.9375 10.015625 0 19.605468-1.820312 28.460937-5.144531 4.195313-1.574219 8.867188-.902344 12.570313 1.617188 14.984375 10.195312 33.078125 16.15625 52.566406 16.15625 13.535156 0 26.398438-2.882813 38.015625-8.050782-60.257813 5.261719-87.6875-46.21875-84.167969-75.574218.570313-4.769532-3.132812-9.054688-7.933594-9.144532zm0 0" fill="#7acefa"/><g fill="#6a96d7"><path d="m165.066406 166.734375c-4.140625 0-7.5-3.359375-7.5-7.5v-16.058594c0-4.140625 3.359375-7.5 7.5-7.5 4.144532 0 7.5 3.359375 7.5 7.5v16.058594c0 4.140625-3.355468 7.5-7.5 7.5zm0 0"/><path d="m190.011719 191.09375c-4.140625 0-7.5-3.355469-7.5-7.5v-23.359375c0-4.144531 3.359375-7.5 7.5-7.5s7.5 3.355469 7.5 7.5v23.359375c0 4.144531-3.359375 7.5-7.5 7.5zm0 0"/><path d="m302.957031 414.636719c-4.140625 0-7.5-3.359375-7.5-7.5v-27.828125c0-4.144532 3.359375-7.5 7.5-7.5 4.144531 0 7.5 3.355468 7.5 7.5v27.828125c0 4.140625-3.355469 7.5-7.5 7.5zm0 0"/></g><path d="m190.105469 221.902344c-9.882813-9.882813-24.277344-11.515625-32.148438-3.644532-7.871093 7.871094-6.242187 22.265626 3.644531 32.152344 9.882813 9.882813 24.277344 11.515625 32.148438 3.644532 7.871094-7.871094 6.242188-22.265626-3.644531-32.152344zm0 0" fill="#fff"/><path d="m287.113281 318.917969c-9.882812-9.886719-24.277343-11.515625-32.148437-3.644531-7.871094 7.871093-6.238282 22.265624 3.644531 32.148437 9.886719 9.882813 24.28125 11.515625 32.152344 3.644531 7.871093-7.871094 6.238281-22.265625-3.648438-32.148437zm0 0" fill="#fff"/><path d="m200.503906 239.871094c-1.917968 0-3.839844-.734375-5.300781-2.195313-2.929687-2.929687-2.929687-7.679687 0-10.609375l6.320313-6.320312c2.925781-2.925782 7.675781-2.925782 10.605468 0 2.929688 2.929687 2.929688 7.679687 0 10.609375l-6.320312 6.320312c-1.464844 1.460938-3.382813 2.195313-5.304688 2.195313zm0 0" fill="#4e5660"/><path d="m276.652344 316.023438c-1.917969 0-3.835938-.734376-5.300782-2.199219-2.929687-2.929688-2.929687-7.675781 0-10.605469l6.320313-6.320312c2.929687-2.929688 7.675781-2.929688 10.605469 0 2.929687 2.929687 2.929687 7.679687 0 10.605468l-6.320313 6.320313c-1.464843 1.464843-3.382812 2.199219-5.304687 2.199219zm0 0" fill="#4e5660"/><path d="m247.039062 288.308594c-6.960937 0-13.664062-2.753906-18.617187-7.703125-5.378906-5.382813-8.164063-12.828125-7.644531-20.429688.285156-4.132812 3.863281-7.242187 7.996094-6.96875 4.132812.28125 7.253906 3.863281 6.96875 7.996094-.222657 3.273437.972656 6.480469 3.285156 8.792969 2.316406 2.3125 5.519531 3.511718 8.796875 3.285156 4.128906-.265625 7.710937 2.835938 7.996093 6.96875.285157 4.132812-2.835937 7.710938-6.96875 7.996094-.605468.042968-1.210937.0625-1.8125.0625zm0 0" fill="#4e5660"/></svg>